<svg version="1.1" viewBox="0.0 0.0 96.0 96.0" fill="none" stroke="none" stroke-linecap="square" stroke-miterlimit="10" xmlns:xlink="http://www.w3.org/1999/xlink" xmlns="http://www.w3.org/2000/svg"><clipPath id="p.0"><path d="m0 0l96.0 0l0 96.0l-96.0 0l0 -96.0z" clip-rule="nonzero"/></clipPath><g clip-path="url(#p.0)"><path fill="#000000" fill-opacity="0.0" d="m0 0l96.0 0l0 96.0l-96.0 0z" fill-rule="evenodd"/><path fill="#000000" fill-opacity="0.0" d="m0 0l96.0 0l0 96.0l-96.0 0z" fill-rule="evenodd"/><path fill="#000000" d="m13.766205 59.784378l0 -3.828125l21.515625 0l0 3.828125l-21.515625 0zm0 -13.40625l0 -3.828125l21.515625 0l0 3.828125l-21.515625 0zm8.84375 6.6875l0 -17.234375l3.84375 0l0 17.234375l-3.84375 0zm16.155212 11.734375l12.4375 -33.9375l4.59375 0l12.375 33.9375l-29.40625 0zm5.9375 -3.796875l17.59375 0l-8.6875 -24.59375l-0.265625 0l-8.640625 24.59375zm31.619858 -15.09375q-2.109375 0 -3.859375 -1.015625q-1.734375 -1.03125 -2.78125 -2.765625q-1.046875 -1.75 -1.046875 -3.84375q0 -2.125 1.046875 -3.875q1.046875 -1.75 2.78125 -2.78125q1.75 -1.046875 3.859375 -1.046875q2.09375 0 3.828125 1.046875q1.734375 1.03125 2.765625 2.78125q1.046875 1.75 1.046875 3.875q0 2.09375 -1.046875 3.84375q-1.03125 1.734375 -2.765625 2.765625q-1.734375 1.015625 -3.828125 1.015625zm0 -3.40625q1.171875 0 2.125 -0.5625q0.953125 -0.578125 1.515625 -1.53125q0.578125 -0.96875 0.578125 -2.125q0 -1.1875 -0.578125 -2.140625q-0.5625 -0.953125 -1.515625 -1.53125q-0.953125 -0.59375 -2.125 -0.59375q-1.171875 0 -2.140625 0.59375q-0.96875 0.578125 -1.546875 1.53125q-0.5625 0.953125 -0.5625 2.140625q0 1.15625 0.5625 2.125q0.578125 0.953125 1.546875 1.53125q0.96875 0.5625 2.140625 0.5625z" fill-rule="nonzero"/></g></svg>
